<?xml version="1.0" encoding="UTF-8" standalone="no"?><!DOCTYPE svg PUBLIC "-//W3C//DTD SVG 1.1//EN" "http://www.w3.org/Graphics/SVG/1.1/DTD/svg11.dtd"><!-- Generated by graphviz version 2.40.1 (20161225.0304)
 --><!-- Title: %0 Pages: 1 --><svg xmlns="http://www.w3.org/2000/svg" xmlns:xlink="http://www.w3.org/1999/xlink" width="1630pt" height="404pt" viewBox="0.00 0.00 1630.34 404.00">
<g id="graph0" class="graph" transform="scale(1 1) rotate(0) translate(4 400)">
<title>%0</title>
<polygon fill="#ffffff" stroke="transparent" points="-4,4 -4,-400 1626.3416,-400 1626.3416,4 -4,4"/>
<!-- [root] aws_dynamodb_table.Tousif (expand) -->
<g id="node1" class="node">
<title>[root] aws_dynamodb_table.Tousif (expand)</title>
<polygon fill="none" stroke="#000000" points="819.917,-108 641.6574,-108 641.6574,-72 819.917,-72 819.917,-108"/>
<text text-anchor="middle" x="730.7872" y="-85.8" font-family="Times,serif" font-size="14.00" fill="#000000">aws_dynamodb_table.Tousif</text>
</g>
<!-- [root] provider[&quot;registry.terraform.io/hashicorp/aws&quot;] -->
<g id="node10" class="node">
<title>[root] provider["registry.terraform.io/hashicorp/aws"]</title>
<polygon fill="none" stroke="#000000" points="869.7872,-36 594.7967,-18 869.7872,0 1144.7777,-18 869.7872,-36"/>
<text text-anchor="middle" x="869.7872" y="-13.8" font-family="Times,serif" font-size="14.00" fill="#000000">provider["registry.terraform.io/hashicorp/aws"]</text>
</g>
<!-- [root] aws_dynamodb_table.Tousif (expand)&#45;&gt;[root] provider[&quot;registry.terraform.io/hashicorp/aws&quot;] -->
<g id="edge1" class="edge">
<title>[root] aws_dynamodb_table.Tousif (expand)-&gt;[root] provider["registry.terraform.io/hashicorp/aws"]</title>
<path fill="none" stroke="#000000" d="M765.8628,-71.8314C785.2515,-61.7883 809.4222,-49.2682 829.5731,-38.8303"/>
<polygon fill="#000000" stroke="#000000" points="831.2474,-41.9048 838.5171,-34.1975 828.0278,-35.6891 831.2474,-41.9048"/>
</g>
<!-- [root] aws_eip.my_eip (expand) -->
<g id="node2" class="node">
<title>[root] aws_eip.my_eip (expand)</title>
<polygon fill="none" stroke="#000000" points="865.6546,-252 757.9198,-252 757.9198,-216 865.6546,-216 865.6546,-252"/>
<text text-anchor="middle" x="811.7872" y="-229.8" font-family="Times,serif" font-size="14.00" fill="#000000">aws_eip.my_eip</text>
</g>
<!-- [root] aws_eip.my_eip (expand)&#45;&gt;[root] provider[&quot;registry.terraform.io/hashicorp/aws&quot;] -->
<g id="edge2" class="edge">
<title>[root] aws_eip.my_eip (expand)-&gt;[root] provider["registry.terraform.io/hashicorp/aws"]</title>
<path fill="none" stroke="#000000" d="M816.6325,-215.9555C826.7864,-178.1409 850.3511,-90.3825 862.4018,-45.5042"/>
<polygon fill="#000000" stroke="#000000" points="865.7834,-46.4068 864.9965,-35.8413 859.0228,-44.5915 865.7834,-46.4068"/>
</g>
<!-- [root] aws_instance.myserver (expand) -->
<g id="node3" class="node">
<title>[root] aws_instance.myserver (expand)</title>
<polygon fill="none" stroke="#000000" points="1030.0084,-252 883.566,-252 883.566,-216 1030.0084,-216 1030.0084,-252"/>
<text text-anchor="middle" x="956.7872" y="-229.8" font-family="Times,serif" font-size="14.00" fill="#000000">aws_instance.myserver</text>
</g>
<!-- [root] aws_instance.myserver (expand)&#45;&gt;[root] provider[&quot;registry.terraform.io/hashicorp/aws&quot;] -->
<g id="edge3" class="edge">
<title>[root] aws_instance.myserver (expand)-&gt;[root] provider["registry.terraform.io/hashicorp/aws"]</title>
<path fill="none" stroke="#000000" d="M938.2944,-215.9902C929.1244,-206.1304 918.5857,-193.2454 911.7872,-180 889.2803,-136.1499 878.1593,-79.2782 873.2174,-45.898"/>
<polygon fill="#000000" stroke="#000000" points="876.675,-45.3507 871.8234,-35.932 869.7425,-46.3204 876.675,-45.3507"/>
</g>
<!-- [root] aws_internet_gateway.my_igw (expand) -->
<g id="node4" class="node">
<title>[root] aws_internet_gateway.my_igw (expand)</title>
<polygon fill="none" stroke="#000000" points="1404.8439,-180 1214.7305,-180 1214.7305,-144 1404.8439,-144 1404.8439,-180"/>
<text text-anchor="middle" x="1309.7872" y="-157.8" font-family="Times,serif" font-size="14.00" fill="#000000">aws_internet_gateway.my_igw</text>
</g>
<!-- [root] aws_vpc.my_vpc (expand) -->
<g id="node9" class="node">
<title>[root] aws_vpc.my_vpc (expand)</title>
<polygon fill="none" stroke="#000000" points="1336.3736,-108 1223.2008,-108 1223.2008,-72 1336.3736,-72 1336.3736,-108"/>
<text text-anchor="middle" x="1279.7872" y="-85.8" font-family="Times,serif" font-size="14.00" fill="#000000">aws_vpc.my_vpc</text>
</g>
<!-- [root] aws_internet_gateway.my_igw (expand)&#45;&gt;[root] aws_vpc.my_vpc (expand) -->
<g id="edge4" class="edge">
<title>[root] aws_internet_gateway.my_igw (expand)-&gt;[root] aws_vpc.my_vpc (expand)</title>
<path fill="none" stroke="#000000" d="M1302.2169,-143.8314C1298.9379,-135.9617 1295.0252,-126.5712 1291.3927,-117.8533"/>
<polygon fill="#000000" stroke="#000000" points="1294.5364,-116.2979 1287.4594,-108.4133 1288.0748,-118.9902 1294.5364,-116.2979"/>
</g>
<!-- [root] aws_network_interface.my_ni (expand) -->
<g id="node5" class="node">
<title>[root] aws_network_interface.my_ni (expand)</title>
<polygon fill="none" stroke="#000000" points="1233.6674,-252 1047.907,-252 1047.907,-216 1233.6674,-216 1233.6674,-252"/>
<text text-anchor="middle" x="1140.7872" y="-229.8" font-family="Times,serif" font-size="14.00" fill="#000000">aws_network_interface.my_ni</text>
</g>
<!-- [root] aws_subnet.my_subnet (expand) -->
<g id="node8" class="node">
<title>[root] aws_subnet.my_subnet (expand)</title>
<polygon fill="none" stroke="#000000" points="1067.0434,-180 920.531,-180 920.531,-144 1067.0434,-144 1067.0434,-180"/>
<text text-anchor="middle" x="993.7872" y="-157.8" font-family="Times,serif" font-size="14.00" fill="#000000">aws_subnet.my_subnet</text>
</g>
<!-- [root] aws_network_interface.my_ni (expand)&#45;&gt;[root] aws_subnet.my_subnet (expand) -->
<g id="edge5" class="edge">
<title>[root] aws_network_interface.my_ni (expand)-&gt;[root] aws_subnet.my_subnet (expand)</title>
<path fill="none" stroke="#000000" d="M1103.6929,-215.8314C1084.2946,-206.3302 1060.3702,-194.6121 1039.801,-184.5374"/>
<polygon fill="#000000" stroke="#000000" points="1041.135,-181.2935 1030.6148,-180.038 1038.0558,-187.5799 1041.135,-181.2935"/>
</g>
<!-- [root] var.ni_private_ip -->
<g id="node14" class="node">
<title>[root] var.ni_private_ip</title>
<polygon fill="none" stroke="#000000" points="1190.8146,-180 1084.7598,-180 1084.7598,-144 1196.8146,-144 1196.8146,-174 1190.8146,-180"/>
<polyline fill="none" stroke="#000000" points="1190.8146,-180 1190.8146,-174 "/>
<polyline fill="none" stroke="#000000" points="1196.8146,-174 1190.8146,-174 "/>
<text text-anchor="middle" x="1140.7872" y="-157.8" font-family="Times,serif" font-size="14.00" fill="#000000">var.ni_private_ip</text>
</g>
<!-- [root] aws_network_interface.my_ni (expand)&#45;&gt;[root] var.ni_private_ip -->
<g id="edge6" class="edge">
<title>[root] aws_network_interface.my_ni (expand)-&gt;[root] var.ni_private_ip</title>
<path fill="none" stroke="#000000" d="M1140.7872,-215.8314C1140.7872,-208.131 1140.7872,-198.9743 1140.7872,-190.4166"/>
<polygon fill="#000000" stroke="#000000" points="1144.2873,-190.4132 1140.7872,-180.4133 1137.2873,-190.4133 1144.2873,-190.4132"/>
</g>
<!-- [root] aws_route.route_to_internet (expand) -->
<g id="node6" class="node">
<title>[root] aws_route.route_to_internet (expand)</title>
<polygon fill="none" stroke="#000000" points="1425.7374,-252 1251.837,-252 1251.837,-216 1425.7374,-216 1425.7374,-252"/>
<text text-anchor="middle" x="1338.7872" y="-229.8" font-family="Times,serif" font-size="14.00" fill="#000000">aws_route.route_to_internet</text>
</g>
<!-- [root] aws_route.route_to_internet (expand)&#45;&gt;[root] aws_internet_gateway.my_igw (expand) -->
<g id="edge7" class="edge">
<title>[root] aws_route.route_to_internet (expand)-&gt;[root] aws_internet_gateway.my_igw (expand)</title>
<path fill="none" stroke="#000000" d="M1331.4693,-215.8314C1328.2996,-207.9617 1324.5172,-198.5712 1321.0059,-189.8533"/>
<polygon fill="#000000" stroke="#000000" points="1324.1864,-188.3815 1317.2037,-180.4133 1317.6933,-190.9968 1324.1864,-188.3815"/>
</g>
<!-- [root] aws_route_table.my_route_table (expand) -->
<g id="node7" class="node">
<title>[root] aws_route_table.my_route_table (expand)</title>
<polygon fill="none" stroke="#000000" points="1622.396,-180 1423.1784,-180 1423.1784,-144 1622.396,-144 1622.396,-180"/>
<text text-anchor="middle" x="1522.7872" y="-157.8" font-family="Times,serif" font-size="14.00" fill="#000000">aws_route_table.my_route_table</text>
</g>
<!-- [root] aws_route.route_to_internet (expand)&#45;&gt;[root] aws_route_table.my_route_table (expand) -->
<g id="edge8" class="edge">
<title>[root] aws_route.route_to_internet (expand)-&gt;[root] aws_route_table.my_route_table (expand)</title>
<path fill="none" stroke="#000000" d="M1385.2182,-215.8314C1410.1552,-206.0734 1441.0681,-193.977 1467.2698,-183.7242"/>
<polygon fill="#000000" stroke="#000000" points="1468.6531,-186.9414 1476.6901,-180.038 1466.1023,-180.4227 1468.6531,-186.9414"/>
</g>
<!-- [root] aws_route_table.my_route_table (expand)&#45;&gt;[root] aws_vpc.my_vpc (expand) -->
<g id="edge9" class="edge">
<title>[root] aws_route_table.my_route_table (expand)-&gt;[root] aws_vpc.my_vpc (expand)</title>
<path fill="none" stroke="#000000" d="M1461.7817,-143.9243C1426.6994,-133.5295 1382.583,-120.458 1346.572,-109.7881"/>
<polygon fill="#000000" stroke="#000000" points="1347.2266,-106.3317 1336.6442,-106.8465 1345.2379,-113.0433 1347.2266,-106.3317"/>
</g>
<!-- [root] aws_subnet.my_subnet (expand)&#45;&gt;[root] aws_vpc.my_vpc (expand) -->
<g id="edge10" class="edge">
<title>[root] aws_subnet.my_subnet (expand)-&gt;[root] aws_vpc.my_vpc (expand)</title>
<path fill="none" stroke="#000000" d="M1065.5879,-143.9243C1110.8145,-132.5386 1168.7977,-117.9414 1213.0284,-106.8064"/>
<polygon fill="#000000" stroke="#000000" points="1213.9735,-110.1778 1222.8165,-104.3423 1212.2646,-103.3896 1213.9735,-110.1778"/>
</g>
<!-- [root] var.availability_zone -->
<g id="node11" class="node">
<title>[root] var.availability_zone</title>
<polygon fill="none" stroke="#000000" points="1049.5792,-108 921.9952,-108 921.9952,-72 1055.5792,-72 1055.5792,-102 1049.5792,-108"/>
<polyline fill="none" stroke="#000000" points="1049.5792,-108 1049.5792,-102 "/>
<polyline fill="none" stroke="#000000" points="1055.5792,-102 1049.5792,-102 "/>
<text text-anchor="middle" x="988.7872" y="-85.8" font-family="Times,serif" font-size="14.00" fill="#000000">var.availability_zone</text>
</g>
<!-- [root] aws_subnet.my_subnet (expand)&#45;&gt;[root] var.availability_zone -->
<g id="edge11" class="edge">
<title>[root] aws_subnet.my_subnet (expand)-&gt;[root] var.availability_zone</title>
<path fill="none" stroke="#000000" d="M992.5255,-143.8314C991.9907,-136.131 991.3549,-126.9743 990.7606,-118.4166"/>
<polygon fill="#000000" stroke="#000000" points="994.2504,-118.1467 990.0659,-108.4133 987.2672,-118.6317 994.2504,-118.1467"/>
</g>
<!-- [root] var.subnet_cidr -->
<g id="node17" class="node">
<title>[root] var.subnet_cidr</title>
<polygon fill="none" stroke="#000000" points="1169.9785,-108 1073.5959,-108 1073.5959,-72 1175.9785,-72 1175.9785,-102 1169.9785,-108"/>
<polyline fill="none" stroke="#000000" points="1169.9785,-108 1169.9785,-102 "/>
<polyline fill="none" stroke="#000000" points="1175.9785,-102 1169.9785,-102 "/>
<text text-anchor="middle" x="1124.7872" y="-85.8" font-family="Times,serif" font-size="14.00" fill="#000000">var.subnet_cidr</text>
</g>
<!-- [root] aws_subnet.my_subnet (expand)&#45;&gt;[root] var.subnet_cidr -->
<g id="edge12" class="edge">
<title>[root] aws_subnet.my_subnet (expand)-&gt;[root] var.subnet_cidr</title>
<path fill="none" stroke="#000000" d="M1026.844,-143.8314C1043.7549,-134.5368 1064.5257,-123.1208 1082.5813,-113.1971"/>
<polygon fill="#000000" stroke="#000000" points="1084.6632,-116.0468 1091.7409,-108.1628 1081.2915,-109.9122 1084.6632,-116.0468"/>
</g>
<!-- [root] aws_vpc.my_vpc (expand)&#45;&gt;[root] provider[&quot;registry.terraform.io/hashicorp/aws&quot;] -->
<g id="edge13" class="edge">
<title>[root] aws_vpc.my_vpc (expand)-&gt;[root] provider["registry.terraform.io/hashicorp/aws"]</title>
<path fill="none" stroke="#000000" d="M1223.052,-79.0823C1210.4611,-76.7062 1197.177,-74.2356 1184.7872,-72 1108.0778,-58.1588 1020.6988,-43.2469 957.4612,-32.6077"/>
<polygon fill="#000000" stroke="#000000" points="957.9663,-29.1436 947.5245,-30.9377 956.8061,-36.0468 957.9663,-29.1436"/>
</g>
<!-- [root] var.vpc_cidr -->
<g id="node18" class="node">
<title>[root] var.vpc_cidr</title>
<polygon fill="none" stroke="#000000" points="1317.1435,-36 1236.4309,-36 1236.4309,0 1323.1435,0 1323.1435,-30 1317.1435,-36"/>
<polyline fill="none" stroke="#000000" points="1317.1435,-36 1317.1435,-30 "/>
<polyline fill="none" stroke="#000000" points="1323.1435,-30 1317.1435,-30 "/>
<text text-anchor="middle" x="1279.7872" y="-13.8" font-family="Times,serif" font-size="14.00" fill="#000000">var.vpc_cidr</text>
</g>
<!-- [root] aws_vpc.my_vpc (expand)&#45;&gt;[root] var.vpc_cidr -->
<g id="edge14" class="edge">
<title>[root] aws_vpc.my_vpc (expand)-&gt;[root] var.vpc_cidr</title>
<path fill="none" stroke="#000000" d="M1279.7872,-71.8314C1279.7872,-64.131 1279.7872,-54.9743 1279.7872,-46.4166"/>
<polygon fill="#000000" stroke="#000000" points="1283.2873,-46.4132 1279.7872,-36.4133 1276.2873,-46.4133 1283.2873,-46.4132"/>
</g>
<!-- [root] var.http_ingress_from_port -->
<g id="node12" class="node">
<title>[root] var.http_ingress_from_port</title>
<polygon fill="none" stroke="#000000" points="163.3621,-324 .2123,-324 .2123,-288 169.3621,-288 169.3621,-318 163.3621,-324"/>
<polyline fill="none" stroke="#000000" points="163.3621,-324 163.3621,-318 "/>
<polyline fill="none" stroke="#000000" points="169.3621,-318 163.3621,-318 "/>
<text text-anchor="middle" x="84.7872" y="-301.8" font-family="Times,serif" font-size="14.00" fill="#000000">var.http_ingress_from_port</text>
</g>
<!-- [root] var.http_ingress_to_port -->
<g id="node13" class="node">
<title>[root] var.http_ingress_to_port</title>
<polygon fill="none" stroke="#000000" points="334.5406,-324 187.0338,-324 187.0338,-288 340.5406,-288 340.5406,-318 334.5406,-324"/>
<polyline fill="none" stroke="#000000" points="334.5406,-324 334.5406,-318 "/>
<polyline fill="none" stroke="#000000" points="340.5406,-318 334.5406,-318 "/>
<text text-anchor="middle" x="263.7872" y="-301.8" font-family="Times,serif" font-size="14.00" fill="#000000">var.http_ingress_to_port</text>
</g>
<!-- [root] var.ssh_ingress_from_port -->
<g id="node15" class="node">
<title>[root] var.ssh_ingress_from_port</title>
<polygon fill="none" stroke="#000000" points="517.4699,-324 358.1045,-324 358.1045,-288 523.4699,-288 523.4699,-318 517.4699,-324"/>
<polyline fill="none" stroke="#000000" points="517.4699,-324 517.4699,-318 "/>
<polyline fill="none" stroke="#000000" points="523.4699,-318 517.4699,-318 "/>
<text text-anchor="middle" x="440.7872" y="-301.8" font-family="Times,serif" font-size="14.00" fill="#000000">var.ssh_ingress_from_port</text>
</g>
<!-- [root] var.ssh_ingress_to_port -->
<g id="node16" class="node">
<title>[root] var.ssh_ingress_to_port</title>
<polygon fill="none" stroke="#000000" points="685.6488,-324 541.9256,-324 541.9256,-288 691.6488,-288 691.6488,-318 685.6488,-324"/>
<polyline fill="none" stroke="#000000" points="685.6488,-324 685.6488,-318 "/>
<polyline fill="none" stroke="#000000" points="691.6488,-318 685.6488,-318 "/>
<text text-anchor="middle" x="616.7872" y="-301.8" font-family="Times,serif" font-size="14.00" fill="#000000">var.ssh_ingress_to_port</text>
</g>
<!-- [root] provider[&quot;registry.terraform.io/hashicorp/aws&quot;] (close) -->
<g id="node19" class="node">
<title>[root] provider["registry.terraform.io/hashicorp/aws"] (close)</title>
<ellipse fill="none" stroke="#000000" cx="956.7872" cy="-306" rx="247.2168" ry="18"/>
<text text-anchor="middle" x="956.7872" y="-301.8" font-family="Times,serif" font-size="14.00" fill="#000000">[root] provider["registry.terraform.io/hashicorp/aws"] (close)</text>
</g>
<!-- [root] provider[&quot;registry.terraform.io/hashicorp/aws&quot;] (close)&#45;&gt;[root] aws_dynamodb_table.Tousif (expand) -->
<g id="edge15" class="edge">
<title>[root] provider["registry.terraform.io/hashicorp/aws"] (close)-&gt;[root] aws_dynamodb_table.Tousif (expand)</title>
<path fill="none" stroke="#000000" d="M850.0629,-289.717C806.42,-280.8149 762.8615,-268.2516 748.7872,-252 716.7209,-214.9729 719.7885,-153.9549 725.1386,-118.3167"/>
<polygon fill="#000000" stroke="#000000" points="728.6453,-118.5652 726.8359,-108.1261 721.7404,-117.4151 728.6453,-118.5652"/>
</g>
<!-- [root] provider[&quot;registry.terraform.io/hashicorp/aws&quot;] (close)&#45;&gt;[root] aws_eip.my_eip (expand) -->
<g id="edge16" class="edge">
<title>[root] provider["registry.terraform.io/hashicorp/aws"] (close)-&gt;[root] aws_eip.my_eip (expand)</title>
<path fill="none" stroke="#000000" d="M920.5716,-288.0171C901.3677,-278.4814 877.5875,-266.6733 857.1632,-256.5315"/>
<polygon fill="#000000" stroke="#000000" points="858.5569,-253.3159 848.0436,-252.0032 855.4436,-259.5855 858.5569,-253.3159"/>
</g>
<!-- [root] provider[&quot;registry.terraform.io/hashicorp/aws&quot;] (close)&#45;&gt;[root] aws_instance.myserver (expand) -->
<g id="edge17" class="edge">
<title>[root] provider["registry.terraform.io/hashicorp/aws"] (close)-&gt;[root] aws_instance.myserver (expand)</title>
<path fill="none" stroke="#000000" d="M956.7872,-287.8314C956.7872,-280.131 956.7872,-270.9743 956.7872,-262.4166"/>
<polygon fill="#000000" stroke="#000000" points="960.2873,-262.4132 956.7872,-252.4133 953.2873,-262.4133 960.2873,-262.4132"/>
</g>
<!-- [root] provider[&quot;registry.terraform.io/hashicorp/aws&quot;] (close)&#45;&gt;[root] aws_network_interface.my_ni (expand) -->
<g id="edge18" class="edge">
<title>[root] provider["registry.terraform.io/hashicorp/aws"] (close)-&gt;[root] aws_network_interface.my_ni (expand)</title>
<path fill="none" stroke="#000000" d="M1002.2704,-288.2022C1027.2926,-278.4109 1058.545,-266.1817 1085.0283,-255.8187"/>
<polygon fill="#000000" stroke="#000000" points="1086.5122,-258.9965 1094.5492,-252.0931 1083.9614,-252.4778 1086.5122,-258.9965"/>
</g>
<!-- [root] provider[&quot;registry.terraform.io/hashicorp/aws&quot;] (close)&#45;&gt;[root] aws_route.route_to_internet (expand) -->
<g id="edge19" class="edge">
<title>[root] provider["registry.terraform.io/hashicorp/aws"] (close)-&gt;[root] aws_route.route_to_internet (expand)</title>
<path fill="none" stroke="#000000" d="M1046.3492,-289.1192C1105.0484,-278.0555 1181.7543,-263.5978 1241.8789,-252.2654"/>
<polygon fill="#000000" stroke="#000000" points="1242.5815,-255.6947 1251.7602,-250.403 1241.2849,-248.8158 1242.5815,-255.6947"/>
</g>
<!-- [root] root -->
<g id="node20" class="node">
<title>[root] root</title>
<ellipse fill="none" stroke="#000000" cx="440.7872" cy="-378" rx="50.9823" ry="18"/>
<text text-anchor="middle" x="440.7872" y="-373.8" font-family="Times,serif" font-size="14.00" fill="#000000">[root] root</text>
</g>
<!-- [root] root&#45;&gt;[root] var.http_ingress_from_port -->
<g id="edge21" class="edge">
<title>[root] root-&gt;[root] var.http_ingress_from_port</title>
<path fill="none" stroke="#000000" d="M396.4194,-369.0267C342.5015,-358.122 250.0331,-339.4205 179.7866,-325.2134"/>
<polygon fill="#000000" stroke="#000000" points="180.0862,-321.7032 169.5908,-323.1513 178.6985,-328.5642 180.0862,-321.7032"/>
</g>
<!-- [root] root&#45;&gt;[root] var.http_ingress_to_port -->
<g id="edge22" class="edge">
<title>[root] root-&gt;[root] var.http_ingress_to_port</title>
<path fill="none" stroke="#000000" d="M407.0782,-364.2879C381.8459,-354.0239 346.8169,-339.7748 317.7094,-327.9344"/>
<polygon fill="#000000" stroke="#000000" points="318.6696,-324.5466 308.0878,-324.0206 316.032,-331.0307 318.6696,-324.5466"/>
</g>
<!-- [root] root&#45;&gt;[root] var.ssh_ingress_from_port -->
<g id="edge23" class="edge">
<title>[root] root-&gt;[root] var.ssh_ingress_from_port</title>
<path fill="none" stroke="#000000" d="M440.7872,-359.8314C440.7872,-352.131 440.7872,-342.9743 440.7872,-334.4166"/>
<polygon fill="#000000" stroke="#000000" points="444.2873,-334.4132 440.7872,-324.4133 437.2873,-334.4133 444.2873,-334.4132"/>
</g>
<!-- [root] root&#45;&gt;[root] var.ssh_ingress_to_port -->
<g id="edge24" class="edge">
<title>[root] root-&gt;[root] var.ssh_ingress_to_port</title>
<path fill="none" stroke="#000000" d="M474.3057,-364.2879C499.3955,-354.0239 534.2266,-339.7748 563.1697,-327.9344"/>
<polygon fill="#000000" stroke="#000000" points="564.8066,-331.0464 572.7369,-324.0206 562.1562,-324.5676 564.8066,-331.0464"/>
</g>
<!-- [root] root&#45;&gt;[root] provider[&quot;registry.terraform.io/hashicorp/aws&quot;] (close) -->
<g id="edge20" class="edge">
<title>[root] root-&gt;[root] provider["registry.terraform.io/hashicorp/aws"] (close)</title>
<path fill="none" stroke="#000000" d="M488.4063,-371.3555C565.827,-360.5526 721.4528,-338.8374 832.0477,-323.4055"/>
<polygon fill="#000000" stroke="#000000" points="832.8497,-326.8276 842.2701,-321.9791 831.8823,-319.8948 832.8497,-326.8276"/>
</g>
</g>
</svg>
